<!-- Generator: Adobe Illustrator 18.1.1, SVG Export Plug-In  -->
<svg version="1.1"
	 xmlns="http://www.w3.org/2000/svg" xmlns:xlink="http://www.w3.org/1999/xlink" xmlns:a="http://ns.adobe.com/AdobeSVGViewerExtensions/3.0/"
	 x="0px" y="0px" width="44.4px" height="44.7px" viewBox="0 0 44.4 44.7" enable-background="new 0 0 44.4 44.7"
	 xml:space="preserve">
<defs>
</defs>
<g>
	<path fill="#4D4D4D" d="M30.2,6v7l6-0.9V6c0-3.3-2.7-6-6-6l0,0H6C2.7,0,0,2.7,0,6v24.2c0,3.3,2.7,6,6,6h5.7l-0.2-6
		c0,0-6.6-0.2-5.5,0V6H30.2"/>
	<path fill="#4D4D4D" d="M38.4,14.5v24.2H14.3V14.5H38.4 M38.4,8.5H14.3c-3.3,0-6,2.7-6,6v24.2c0,3.3,2.7,6,6,6h24.2
		c3.3,0,6-2.7,6-6V14.5C44.4,11.2,41.7,8.5,38.4,8.5L38.4,8.5z"/>
</g>
</svg>
