<!-- Generator: Adobe Illustrator 18.1.1, SVG Export Plug-In  -->
<svg version="1.1"
	 xmlns="http://www.w3.org/2000/svg" xmlns:xlink="http://www.w3.org/1999/xlink" xmlns:a="http://ns.adobe.com/AdobeSVGViewerExtensions/3.0/"
	 x="0px" y="0px" width="29.1px" height="26px" viewBox="0 0 29.1 26" enable-background="new 0 0 29.1 26" xml:space="preserve">
<defs>
</defs>
<g>
	<g>
		<path fill="#4D4D4D" d="M29.1,3.5c0,1.1-0.9,2-2,2H2c-1.1,0-2-0.9-2-2V2c0-1.1,0.9-2,2-2h25.1c1.1,0,2,0.9,2,2V3.5z"/>
	</g>
	<g>
		<path fill="#4D4D4D" d="M29.1,13.7c0,1.1-0.9,2-2,2H2c-1.1,0-2-0.9-2-2v-1.5c0-1.1,0.9-2,2-2h25.1c1.1,0,2,0.9,2,2V13.7z"/>
	</g>
	<g>
		<path fill="#4D4D4D" d="M29.1,24c0,1.1-0.9,2-2,2H2c-1.1,0-2-0.9-2-2v-1.5c0-1.1,0.9-2,2-2h25.1c1.1,0,2,0.9,2,2V24z"/>
	</g>
</g>
</svg>
